<?xml version="1.0" encoding="iso-8859-1"?>
<!-- Generator: Adobe Illustrator 15.0.0, SVG Export Plug-In . SVG Version: 6.00 Build 0)  -->
<!DOCTYPE svg PUBLIC "-//W3C//DTD SVG 1.1//EN" "http://www.w3.org/Graphics/SVG/1.1/DTD/svg11.dtd">
<svg version="1.1" id="Layer_1" xmlns="http://www.w3.org/2000/svg" xmlns:xlink="http://www.w3.org/1999/xlink" x="0px" y="0px"
	 width="72px" height="72px" viewBox="0 0 72 72" style="enable-background:new 0 0 72 72;" xml:space="preserve">
<style type="text/css">
@import url('https://fonts.googleapis.com/css?family=Nanum+Pen+Script');
 </style>
<![CDATA[
]]>
</style>
<text transform="matrix(1 0 0 1 8.085 59.4609)" style="fill:#6D5343; font-family: 'Nanum Pen Script', cursive; font-size:72.6967;">ap</text>
<g>
	<path style="fill:#603813;" d="M67.5,67.65c-2.708,0.153-5.417,0.259-8.125,0.362c-2.708,0.106-5.417,0.222-8.125,0.289
		c-5.417,0.168-10.833,0.28-16.25,0.364c-5.417,0.094-10.833,0.137-16.25,0.165c-5.417,0.039-10.833,0.001-16.25-0.09L1.227,68.72
		l0.032-1.22l0.417-16l0.217-8l0.123-8c0.042-5.333,0.039-10.667-0.026-16c-0.041-5.333-0.21-10.667-0.311-16L1.664,2.698L2.5,2.679
		c5.417-0.123,10.833-0.304,16.25-0.371C24.167,2.214,29.583,2.123,35,2.087l16.25-0.154c5.417-0.048,10.833-0.039,16.25-0.029
		l1.612,0.003L69.096,3.5c-0.056,5.333-0.05,10.667-0.156,16l-0.271,16c-0.092,5.333-0.279,10.667-0.414,16
		c-0.158,5.333-0.356,10.667-0.604,16l-0.007,0.142L67.5,67.65z M67.344,67.343c-0.244-5.28-0.442-10.562-0.599-15.843
		c-0.135-5.333-0.322-10.667-0.414-16l-0.271-16c-0.106-5.333-0.101-10.667-0.156-16L67.5,5.096
		c-5.417,0.009-10.833,0.019-16.25-0.029L35,4.913c-5.417-0.036-10.833-0.127-16.25-0.221C13.333,4.625,7.917,4.444,2.5,4.321
		L3.321,3.5c-0.1,5.333-0.27,10.667-0.311,16c-0.064,5.333-0.068,10.667-0.026,16l0.123,8l0.217,8l0.417,16L2.5,66.259
		c5.417-0.091,10.833-0.129,16.25-0.09c5.417,0.028,10.833,0.071,16.25,0.165c5.417,0.084,10.833,0.196,16.25,0.364
		c2.708,0.067,5.417,0.183,8.125,0.289C62.031,67.089,64.688,67.194,67.344,67.343z"/>
</g>
</svg>